/* XPM */
static char * floor_xpm[] = {
"64 64 470 2",
"  	c #458136",
". 	c #458036",
"+ 	c #458236",
"@ 	c #4F933C",
"# 	c #4F923C",
"$ 	c #50933D",
"% 	c #52943D",
"& 	c #50933C",
"* 	c #6CAD3F",
"= 	c #6DAE3F",
"- 	c #6EAF3F",
"; 	c #6EB040",
"> 	c #6FB240",
", 	c #6FB140",
"' 	c #6EB140",
") 	c #6EB13F",
"! 	c #52933D",
"~ 	c #6EB03F",
"{ 	c #6DAF3F",
"] 	c #51933D",
"^ 	c #6CAE40",
"/ 	c #6CAE3F",
"( 	c #6BAD3F",
"_ 	c #4E923C",
": 	c #67AA3F",
"< 	c #68AB40",
"[ 	c #67AA40",
"} 	c #67AA41",
"| 	c #68AA40",
"1 	c #67AA3E",
"2 	c #4B8B3A",
"3 	c #4A893A",
"4 	c #498739",
"5 	c #5DA23E",
"6 	c #5DA13E",
"7 	c #498A3A",
"8 	c #478A3A",
"9 	c #468B3A",
"0 	c #468336",
"a 	c #51943D",
"b 	c #6DAF40",
"c 	c #6FB13F",
"d 	c #6BAD40",
"e 	c #6DAE40",
"f 	c #6EB03E",
"g 	c #68AB3F",
"h 	c #69AB40",
"i 	c #68AA41",
"j 	c #6BAE3F",
"k 	c #69AB3F",
"l 	c #4B8C3B",
"m 	c #4B8B3B",
"n 	c #498839",
"o 	c #5DA13D",
"p 	c #498939",
"q 	c #6EAF40",
"r 	c #88C241",
"s 	c #88C140",
"t 	c #71B340",
"u 	c #73B33F",
"v 	c #88C141",
"w 	c #89C341",
"x 	c #8FC742",
"y 	c #8EC642",
"z 	c #8FC641",
"A 	c #8EC641",
"B 	c #70B240",
"C 	c #8FC741",
"D 	c #74B53E",
"E 	c #74B53F",
"F 	c #70B23F",
"G 	c #8DC541",
"H 	c #8CC541",
"I 	c #8CC540",
"J 	c #8AC340",
"K 	c #8BC440",
"L 	c #8CC440",
"M 	c #A5D34C",
"N 	c #A4D24D",
"O 	c #79B83F",
"P 	c #78B73F",
"Q 	c #8CC542",
"R 	c #8AC442",
"S 	c #7BBA3F",
"T 	c #7BB93F",
"U 	c #7AB93E",
"V 	c #6CAD40",
"W 	c #8DC642",
"X 	c #8EC742",
"Y 	c #8DC641",
"Z 	c #8BC541",
"` 	c #71B240",
" .	c #73B43F",
"..	c #73B440",
"+.	c #63A740",
"@.	c #62A53F",
"#.	c #498C3B",
"$.	c #488B3A",
"%.	c #478437",
"&.	c #76B63F",
"*.	c #8CC441",
"=.	c #90C741",
"-.	c #71B33F",
";.	c #A6D34D",
">.	c #A5D34D",
",.	c #79B940",
"'.	c #7DBB3F",
").	c #7CBA3F",
"!.	c #7BB93E",
"~.	c #8DC540",
"{.	c #72B43F",
"].	c #72B340",
"^.	c #64A840",
"/.	c #61A53F",
"(.	c #4A8E3A",
"_.	c #4A8C3A",
":.	c #5DA03E",
"<.	c #5B9F3D",
"[.	c #6AAC3F",
"}.	c #76B63E",
"|.	c #75B63F",
"1.	c #73B441",
"2.	c #72B440",
"3.	c #AAD650",
"4.	c #AAD64F",
"5.	c #A8D54E",
"6.	c #80BC3F",
"7.	c #ACD751",
"8.	c #74B540",
"9.	c #7AB83E",
"0.	c #6FB241",
"a.	c #5A9F3E",
"b.	c #5A9F3D",
"c.	c #5FA33F",
"d.	c #5EA33F",
"e.	c #78B73E",
"f.	c #79B73E",
"g.	c #75B640",
"h.	c #ACD852",
"i.	c #ACD851",
"j.	c #ABD750",
"k.	c #7DBB3E",
"l.	c #91C841",
"m.	c #ABD751",
"n.	c #70B13E",
"o.	c #5DA23F",
"p.	c #7DBA3F",
"q.	c #81BD3E",
"r.	c #8AC341",
"s.	c #7EBB3F",
"t.	c #7EBB3E",
"u.	c #82BD3F",
"v.	c #6DAE41",
"w.	c #71B341",
"x.	c #74B541",
"y.	c #75B53F",
"z.	c #A5D24C",
"A.	c #A6D44D",
"B.	c #A7D44D",
"C.	c #A9D54E",
"D.	c #99CC46",
"E.	c #77B63F",
"F.	c #8CC544",
"G.	c #5A9F3F",
"H.	c #5A9E3E",
"I.	c #82BD3E",
"J.	c #89C340",
"K.	c #8AC441",
"L.	c #7AB93F",
"M.	c #79B840",
"N.	c #6DAD41",
"O.	c #6CAD42",
"P.	c #8BC441",
"Q.	c #A4D24C",
"R.	c #8EC541",
"S.	c #96CB44",
"T.	c #8CC543",
"U.	c #5A9E3F",
"V.	c #4B8A3A",
"W.	c #4A8A39",
"X.	c #76B640",
"Y.	c #77B640",
"Z.	c #A3D24C",
"`.	c #77B740",
" +	c #6AAC42",
".+	c #69AB42",
"++	c #83BE3E",
"@+	c #6DAF41",
"#+	c #6FB141",
"$+	c #76B740",
"%+	c #77B741",
"&+	c #78B83F",
"*+	c #498838",
"=+	c #4A8A38",
"-+	c #8DC640",
";+	c #A2D14B",
">+	c #A1D04A",
",+	c #A1D14B",
"'+	c #91C842",
")+	c #6BAD42",
"!+	c #6CAD41",
"~+	c #A4D34D",
"{+	c #6EAF43",
"]+	c #6DAE42",
"^+	c #90C742",
"/+	c #88C343",
"(+	c #77B73F",
"_+	c #81BD3F",
":+	c #68AB41",
"<+	c #69AC3F",
"[+	c #68AA3F",
"}+	c #6CAC3F",
"|+	c #6DAE3E",
"1+	c #85C03F",
"2+	c #83BE3F",
"3+	c #80BC3E",
"4+	c #9ECF49",
"5+	c #9FD04A",
"6+	c #A9D64E",
"7+	c #90C842",
"8+	c #7FBB3E",
"9+	c #81BC3E",
"0+	c #80BD40",
"a+	c #4F8F3C",
"b+	c #4E8D3B",
"c+	c #87C23F",
"d+	c #86C140",
"e+	c #7CBA3E",
"f+	c #8EC741",
"g+	c #7AB83F",
"h+	c #9CCD48",
"i+	c #7DBA3E",
"j+	c #7FBC41",
"k+	c #4D8D3B",
"l+	c #6AAB3F",
"m+	c #88C240",
"n+	c #87C140",
"o+	c #77B840",
"p+	c #6AAC41",
"q+	c #89C240",
"r+	c #A3D14B",
"s+	c #ACD752",
"t+	c #6EB041",
"u+	c #A9D64D",
"v+	c #ABD74E",
"w+	c #ABD74F",
"x+	c #AAD64E",
"y+	c #6EB042",
"z+	c #4D8C3B",
"A+	c #88C23F",
"B+	c #69AB41",
"C+	c #A0D04A",
"D+	c #6EB141",
"E+	c #7FBC3F",
"F+	c #A7D44E",
"G+	c #A9D54D",
"H+	c #72B341",
"I+	c #6CAE41",
"J+	c #4F903B",
"K+	c #4E8F3B",
"L+	c #82BE3F",
"M+	c #86C13F",
"N+	c #87C13F",
"O+	c #9ACC46",
"P+	c #9BCC47",
"Q+	c #9ECE49",
"R+	c #7FBC3E",
"S+	c #6BAD41",
"T+	c #70B13F",
"U+	c #85C03E",
"V+	c #97CB45",
"W+	c #9DCE49",
"X+	c #80BD3F",
"Y+	c #76B73F",
"Z+	c #6FB23F",
"`+	c #67A940",
" @	c #92C942",
".@	c #A8D54D",
"+@	c #A7D54D",
"@@	c #6EAF41",
"#@	c #93C942",
"$@	c #78B840",
"%@	c #7FBB3F",
"&@	c #84BF3F",
"*@	c #A8D44E",
"=@	c #83BF3E",
"-@	c #76B73E",
";@	c #95CA44",
">@	c #99CB45",
",@	c #5A9D3E",
"'@	c #69AC41",
")@	c #67A941",
"!@	c #6FB040",
"~@	c #76B83F",
"{@	c #9BCD47",
"]@	c #A3D24B",
"^@	c #98CB45",
"/@	c #83BF3F",
"(@	c #8AC440",
"_@	c #88C242",
":@	c #66A93F",
"<@	c #77B63E",
"[@	c #70B241",
"}@	c #89C23F",
"|@	c #86C13E",
"1@	c #6AAD3F",
"2@	c #4D903C",
"3@	c #4E913C",
"4@	c #77B83F",
"5@	c #74B440",
"6@	c #55983E",
"7@	c #70B141",
"8@	c #A2D14A",
"9@	c #84BF3E",
"0@	c #55993E",
"a@	c #71B241",
"b@	c #72B441",
"c@	c #89C343",
"d@	c #55993F",
"e@	c #7BBA40",
"f@	c #6DAD42",
"g@	c #75B53E",
"h@	c #76B53D",
"i@	c #8AC443",
"j@	c #53973D",
"k@	c #A3D14C",
"l@	c #99CC45",
"m@	c #8AC33F",
"n@	c #6AAC3E",
"o@	c #69AB3E",
"p@	c #75B540",
"q@	c #75B73F",
"r@	c #6BAD3E",
"s@	c #4E8F3C",
"t@	c #4F903C",
"u@	c #87C13E",
"v@	c #8DC542",
"w@	c #70B242",
"x@	c #8EC640",
"y@	c #6BAC40",
"z@	c #6BAC41",
"A@	c #89C33F",
"B@	c #6AAC40",
"C@	c #599D3F",
"D@	c #599D3E",
"E@	c #A9D64F",
"F@	c #7CBA40",
"G@	c #6AAB40",
"H@	c #79B73F",
"I@	c #7AB940",
"J@	c #589C3E",
"K@	c #579A3E",
"L@	c #9DCE48",
"M@	c #A0CF49",
"N@	c #A0CF4A",
"O@	c #7DBA40",
"P@	c #4C8C3B",
"Q@	c #86C03F",
"R@	c #88C13F",
"S@	c #91C843",
"T@	c #78B83E",
"U@	c #9FCF49",
"V@	c #9CCD47",
"W@	c #67A93F",
"X@	c #A1D14A",
"Y@	c #67A93E",
"Z@	c #64A741",
"`@	c #65A741",
" #	c #64A740",
".#	c #65A740",
"+#	c #6FB042",
"@#	c #6FB142",
"##	c #8BC540",
"$#	c #8CC641",
"%#	c #6AAD40",
"&#	c #A2D04B",
"*#	c #73B53F",
"=#	c #9ACC47",
"-#	c #74B63F",
";#	c #79B83E",
">#	c #74B640",
",#	c #73B540",
"'#	c #9CCE48",
")#	c #7DBB40",
"!#	c #ACD74F",
"~#	c #75B63E",
"{#	c #66A941",
"]#	c #8BC340",
"^#	c #72B33F",
"/#	c #89C443",
"(#	c #71B23F",
"_#	c #8CC642",
":#	c #66A940",
"<#	c #82BE3E",
"[#	c #6FB041",
"}#	c #5CA141",
"|#	c #5CA140",
"1#	c #6BAE40",
"2#	c #5B9F41",
"3#	c #5B9F40",
"4#	c #69AC42",
"5#	c #AAD74F",
"6#	c #7EBC3F",
"7#	c #7BBA3E",
"8#	c #82BE42",
"9#	c #6DAD40",
"0#	c #7EBB41",
"a#	c #50923C",
"b#	c #4E903C",
"c#	c #69AC40",
"d#	c #77B73E",
"e#	c #7DBB41",
"f#	c #5CA040",
"g#	c #95CA43",
"h#	c #5BA040",
"i#	c #96CA44",
"j#	c #A2D04A",
"k#	c #6DAF42",
"l#	c #5CA13F",
"m#	c #5CA03F",
"n#	c #5DA241",
"o#	c #5EA240",
"p#	c #5EA341",
"q#	c #5DA240",
"r#	c #85BF3F",
"s#	c #60A43F",
"t#	c #60A43E",
"u#	c #5EA340",
"v#	c #82BE45",
"w#	c #61A540",
"x#	c #5FA340",
"y#	c #5DA13F",
"z#	c #97CB44",
"A#	c #62A540",
"B#	c #60A440",
"C#	c #54973E",
"D#	c #50923D",
"E#	c #498738",
"F#	c #498537",
"G#	c #4A8738",
"H#	c #4C8D3A",
"I#	c #4C8C3A",
"J#	c #62A53E",
"K#	c #61A43E",
"L#	c #53953D",
"M#	c #53963E",
"N#	c #6BAD3D",
"O#	c #6CAD3E",
"P#	c #51933B",
"Q#	c #50923B",
"R#	c #54963D",
"S#	c #55983C",
"T#	c #68AA3E",
"U#	c #56983C",
"V#	c #56993D",
"W#	c #6CAE3E",
"X#	c #52943C",
"Y#	c #5B9F3F",
"Z#	c #6FB03F",
"`#	c #4D8C39",
" $	c #4C8A38",
".$	c #478438",
"+$	c #50913C",
"@$	c #4D8E3B",
"#$	c #61A53E",
"$$	c #52943E",
"%$	c #69AC3E",
"&$	c #5BA03F",
"*$	c #498538",
"=$	c #488438",
"  .   + @ # $ % @ & * = - ; > , ' ) % ! ; ~ = = ) { ] ] ^ / ( = / { ) ' ; / / ( @ _ $ % : < [ } | | ( / 1 : 2 3 4 4 5 6 3 7 8 9 ",
"    + 0 & @ ] % a a ^ ~ , ; b b c c % % ; ; { = c { % % d / * { e / f f b { { / @ @ $ % g h i | | < j ( g k l m n n o 5 p p 9 9 ",
"+ + / q r s t u v w x y z A B B C x B B D E F F G A G H H I J J K L M N O P G G Q R r r S T U O V ^ W X G Y Z K ` B  ...+.@.#.$.",
"+ %.( * z C E &.*.H C C =.z B B z =.B B E  .-.t Y A z A G Y K J G A ;.>.,.P A A G G A G '.).).!.; , Y A G G G ~.t t {.].^./.(._.",
":.<.k [.C =.}.&.O O C C z A G H C C |.E I J 1.2.~.G I I G A G G 3.3.4.5.z G A G G G '.6.A A C C 7.3.A Y ..8.A A 9.9.A X > 0.a.b.",
"c.d.h h C C e.P e.f.C =.A A G G C x g.&.K K 1.].G G I I G G G G h.i.j.4.z G G G G G ).k.C =.l.l.i.m.A A  .2.A A O O A C n.f o.5 ",
"5 5 p.q.G G G *.r.*.G *.S T s.t.G G G Y G A J J G Y u.u.q v.v.v.I ~.G H w.t Y G G G x.y.z.;.A.B.C.B.G G I *.D.D.E.|.A z Y F.G.H.",
"o.o.'.I.G G G G J.K.I G L.M.S T *.H G G A A G G A C s.).N.O.v.v.P.*.G Y t t Y G G G 1.&.Q.M 5.5.4.5.R.G G G S.S.y.8.A z G T.G.U.",
"V.W.r.G G G X.Y.z.Q.Q.Z.l.l.O `. +.+A A G G H G M z.A Y ]...H L ++u.G G *.P.@+#+G G G A Q.>.z G r.w $+%+&+O H I Y Y A A ++6.g : ",
"*+=+P.-+G Y y.y.;+;+>+,+'+'+P 8.)+!+C C G G G G ~+~+A G ....P.K I.q.G G Y Y {+]+Y A A ^+~+A.G G r./+x.8.(+e.I G Y Y y A ++_+:+[ ",
"<+[+}+|+G G 1+2+'.p.3+u.A A G H G A m.m.G G G G L.L.G G K P.H G G G 4+5+C.6+C A Y A 7+C Y Y Y W x.1.B ` U !.Y Y Y P.8+k.9+0+a+b+",
"h h d e G G c+d+).e+q._+f+C Y G A z h.7.z G G G g+O G G G G G G G G h+4+6+3.'+=.C C =.=.G G Y y ....t -.9.!.H G G I t.i+t.j+b+k+",
"| l+Y -+I P.m+n+o+&+w m+p+p+J q+r+;+h.s+z A 3+q.2.B q t+H P.3+u.G G A G G A A.u+v+w+=.A G G 1.w.Y A Y G G G G A 6+x+A A , y+k+z+",
"< h G G J J A+n+o+O J.m+B+h m+q+,+C+h.h.z G 3+q.` B t+D+*.P.k.E+H H G G G A F+G+v+w+=.z G Q H+].A C A G ~.G G A w+v+A A t+I+J+K+",
"L+_+P.K.p+B+B t K K P.K E ..M+N+O+P+>+Q+1.E R+q.A Y I.I.P &+O T J q+S+!+J.J H P.I G G G G A x X z C A Y ....L G G G -+-+H H ) ) ",
"I.I.K H B+:+T+F H G Y H 8...1+U+S.V+4+W+]. .3+q.A A u.X+X.Y+&+O J J.!+I+J.r H P.J J G G G G G A f+f+A A 8. .K G Y G ~.G G G Z+Z+",
"`+| { b b v.f+C '+ @ @'+A C P P 8.8.G G G G G G z =.;+Q.C A A f+A A q+q+J J.r.J.(+P G G .@+@A y B , A f+G Y I.R+B t 1+M+G H c ~ ",
"[ [ q ; t+@@C C '+ @#@l.z =.E.&.8.8.P.H A A Y G A C Q.M =.C Y A f+C A+N+A+m+m+q+$@O Y A v+x+C y , t+C C Y G u.%@B t &@1+J q+= = ",
"/ = K.K.5.*@G H P.P.v.S+B+p+M+=@@+@+8.8.G *.-@(+J J.;.A.B.;.A Y Y A O+;@B , B t P.G A A C C A y B B r+r+O+D.D.>@|.|.u._+; v.U.,@",
"e { J H B.B.Y G *.P.V '@)@i 1+U+t+!@E  .Y H ~@Y+J.J ;.B..@5.G G -+I {@V+B D+` ].Y G A A A C C A ].2.]@Q.O+^@D.^@&.&.I./@e I+U.H.",
"[ [+H G A A t t G G *.q+e.Y+9.g+Y A A C =.A Y+~@&+L.Y A G G (@(@].8.Y G 8.].A A C C A A 8+s.8.].G Y G H m+q+m+c+*.*.r.J m+_@/ / ",
":@:@P.G A A t B K K H J.(+<@O L.A A A A C Y Y+(+&+L.G G A A P.P...&.G G g...z z =.=.A f+).).H+[@G G G P.J.}@|@N+K (@P.*.r r 1@[.",
"2@3@| :+Y G H K , v.s.E+K I G Y G G G Y Y+Y+4@&+I G G Y , , ; !@P.H -+G A A r+>+=.C G H P.*.H H G H 5@..|.&.m+q+2+&@r+Q.r _@6@6@",
"3@_ | < H G L K ` , e+k.-+-+G G Y H G P.8.g.`.(+G Y G A B B !@7@*.P.G G z z Q.8@=.=.G I I G G G G G 8...}.&.J J.9@2+r+Z.m+/+0@6@",
"Z+c J.q+G G G R.Y I B #+]...Y A C.C.>.;+L+u.=.l.C =.=.C G H H G h+O+G G G G A G G A s.S @+q E Y+G G H G I *.N+M+H+a@b@2.m+c@d@6@",
"F F G G G G H H A Y t , 2.8.Y f+3.6+B.z.L+q.l.'+C C =.=.A G G A h+O+G G G G G G G G E+e@f@v.g@h@~.G Y G Y G c+N+H+w.8.E J.i@6@j@",
"F F A Y P P t+v.A A G G Y A Y Y A G ..].> t G G T g+'.'.L.T k@r+O+l@J m+P `.H+t 6.'.=.x 8.8.C+]@z.M A G L K G G m@M+S T #+; n@o@",
"c c Y Y E.P #+@@A A A A R.A Y A G H ..2.B t Y G O &+).).T S >.;.D.^@J.q+&.p@t B ).).C A q@Y+Q.Q.M M A G K J Y G m@N+i+).; ; ( r@",
"s@t@^ e G G t ` q._+t 2.Y A A A Y Y I *.++q.1.].k.e+q+J.H G I.2+}@u@|.E ..8.v@G G A =.C A f+C Y Y H ..].[@w@q.I.G Y -+~.K K.* * ",
"a+K+q !@Y G ].t 3+'.w.2.G A Y A A A H H ++_+t w.k.t.J J G G R+t.q+q+}.y.1.8.Y R.A A C C A A Y G G H 8.1.[@[@%@I.x@Y G G K P.[.r@",
"e ^ H Y =.=..@B.G G H H ).S t B I Y G G G G H *.G G I._+y@z@.. .*.L C =.A G I ~.t.).p+p+~.G G Y ....&+P B [@m+A@B@B@Y G e+,.C@D@",
"e e H G C =.A.E@A Y G H s.F@B B G G Y A A G A A A A I.R+G@l+t ].I ~.=.=.A G L L k.).p+B@K *.A W  . .H@O t a@J.m@v.V G G e+I@J@K@",
"e q H A z A C C G G G G C =.~.-+L@Q+C A G ~.Q.Q.>+C+Y H q+J.J K I J p+B+-+G K (@J N+8.8.].t z z A G G I J J G G G G Y ~.t.e@V.3 ",
"; { G G A -+Y Y G ~.I Y =.C Y ~.M@4+C A Y ~.E@.@r+N@~.-+J J K K I K z@p+K K J J m@N+&.|.2.B f+A G G G G I L G A A A G -+8+O@P@V.",
"~ b B !@e !+++I.K K v.#+Q@R@G G '+S@G G &@&@C C R.Y #+, G ~.G G G I 9.P 2.].I.I.I.3+K *.P.P.T@f.H G G G ;+r+4+U@L@V@l.=.~.P.W@:@",
"{ b , !@O.O.q.3+G -+t+#+&@Q@G ~.A A I P.1+1+A G G W w@B W Z W G G *.s.).p@8.I.I.++++H G A y g+9.I ~.G G X@r+Q+4+{@D.l.=.~.Z : Y@",
"Z@`@; q H ~.R+8+G A ++++&@2+&.`.Y H v.O.@@D+G H e+T B [@t [@L+&@;.M ;+Z.K.K I I G G A C Q.>.G P.q ; W G G G G G ..2.G G G H * ( ",
" #.#, q G G 3+E+G A ++++1+&@X.`.L P.N.!++#@#G ##e+L.B [@` B 2+&@Q.Q.M@C+I *.G G G -+A z Q.>.H I @@q Y G G G G G .. .I Y -+$#/ / ",
"B@%#H ~.G ~.Y G G G G G Y A C+8@&@u.9.&+K H G G -+G C =.G G G ~.Q.&#q.E+1+1+A A z A O &+2.w...*#K.w K K e+e+H H E E f.H@!+d g k ",
"< k Y -+I I Y Y G G G G G G =#{@&@I.T L.K K G G I Y =.l.G G G ~.Q.]@_+8+9@9@A z C z P (+B B -#E K K J q+U ;#G x@|.E ;#O S+%#[+W@",
"% % B+d K J !.P >#,#Y G G G 6._+'#h+O+D.~.I A C ,#8.G A B.A.A G A A G G G H (+e.Y A H I ....H P.S L.1.H+B B K K ~.G I K &@&@k [+",
"% % < d J.J.9.e.8.E G G G H )#s.W+W+=#O+G K X f+..8.Y A !#4.A Y Y G G G Y G (+e.K K H I 8.p@G A ).'.1.].B B J I -+G I K 3+X+: : ",
"' ; K.Z K J.!.!.G Y G G H+w.P P A A Y G ,#..>#~#Y A 6+C..@6+&@2+t+q , > -+Y |.|.I.I.J J A A C =.C 7+Y+|.~.-+Y G H@9.G H [ {#& # ",
"F F f+f+K J U !.f+A Y G B 0.&+P A A H H 8...>#|.A z x+6+.@E@2+I.; b t ].A Y -#-#I.I.J ]#A C =.=.=.7+O ;#A A G Y L.S G W i {#a $ ",
"-.F f+f+e e e t+G G Z.Z.K P.A z z W 2.].1...H G A A =.=.A Y y. .-.^#w K C C Y Y H P.v.v.3+_+=.=.z =.A z 4+4+U@'#G G H G K /#% % ",
"^#(#f+A v.N.S+q G Y Q.Z.=.A Y R.G W ].2...2.A C f+f+C C A W ~#E .. .K K C A Y Y G *.v.b I.2+C C =.=.z A 4+4+4+L@Y Y G G J i@% % ",
"^#^#3+I.K.R x C z A A Q t+t+;#!.H -+~.G L I Y A I.R+S+S+I G G H ~.G K J S+O.y G G G G Y 6+x+E+s.G G G I U 9.J.J K I G _#b b :#:@",
" . .3+<#G K A A A A A Q [@[#9.!.-+Y G G G G G G q.s.S+!+H Y A A A A I (@v.]+Y Y Y Y A C w+w+E+'.Y Y I I g+9.A+m+J J G W b b :@:@",
"}#|#1#e H Y A A O.v.G G A f+P e.[@7@G G G G A A Y -+ . .G A 5.A.Z.Q.I K (+Y+O g+G A Q.Z.8@N@q.E+(+E B+i q.++k.e+.. .H H 9+j+P@P@",
"2#3#V e *.G G G 4#O.*.G C C P P #+#+G I A A f+A Y G ]...G A 5#6+Q.Q.G K P (+P O Y Y Q.Q.>+U@_+6#(+&.B@:+&@M+p.7#E E Q Q I.8#P@P@",
"d B@t.t.L G J J.t+B L.'.A A A A G G H H C+>+M M A G G G ;#O G A A A H ~.G P.8.E 3+q.K K _+6.P Y+(@K K J K J Y+&.!+S+9#V e+0#a#b#",
"d c#t.3+K H }@M+, B T '.z z A A A Y J J >+M@M A.z R.G Y P P A A A A I I -+-+|.|.3+9+K K _+3+9.;#I I H L I (@d#d#q e !+V e+e#% a#",
"2#f#K K I.I.!.U I.L+Z.k@z A A R.S+ +B 2.q+J z A A A G G G H 9.P b e L K t+; 9+I.I.q.}@J g#D.^@;@K K Y G G G P.(@f.9.H *.G Q | [ ",
"h#f#K I q.q.9.9.u.&@Q.Q.=.z =.A d p+B ].N+}@C f+C A G Y G H L.e.* * K K B , 3+3+3+3+q+J ;@^@D.i#J.J G G A A H K H@9.H *.*.R :#:#",
"g [+J J.p+'@Q@n+r+Z.j#8@K J C A A A G K T k.A z A W t ^#~#~#H H I K L ~.N N G G H I H P.).L.|.|.M+}@L@W+@+k#2. .P.H H K e.y.l#l#",
"1@o@A@m@p+:+m+J Q.Q.r+r+K J z A =.C A *.O e+H A z X ]. .-@(+G A -+-+I -+Q.Q.G G G I P.J.L.P y.}.A+J W+L@#+@@t {.G H I I d#*#l#m#",
"n#o#; , 9@U+H G I K Q@&@G H , ; v.@+G H H G C z Q.M Q.Z.L+I.z =.z G B [@B T+G R.G G S ;#H+b@H G G G Y G R+i+Y+(+q+J.&.&.b * /.@.",
"p#q#; , U+|@G G (@J.r#u.G G v.@+^ v.A G A z l.l.M M Q.>.2+I.z =.A H [@w@w.w.H G R.A !.U t ].H G G Y G G q.t.&.&.J J.|.g@e e s#t#",
"q#u#q+J B t I G K.J t t &.g@I H G H (+&+A A G G v#v#Q.Q.m+Q@R.G O f.N+N+M+M+2+2+G A ^@^@B B 6.3+..E G G Y Y G G C C &@&@w#x#6@0@",
"y#o.}@m@B ` I G J q+t t |.Y+G H G G (+(+A f+G Y ..E C+>+q+R@G G f.e.M+M+1+&@2+++A z z#S.[@D+s.t. . .H G G Y G G =.C 1+&@A#B#C#0@",
"D#% / ~ 3+6.9+i+p+p+H K J q+*#*#G G [ `+ .g@*.K ~.I ~.-+G Y G G G G s.).} i T 9.A C i+i+A C , e ' F Y A K I q ~ * = u.q.`.%+E#F#",
"] ] / = 3+9+s.T p+:+G G G K. . .G H [ :#{.D K I K K K K K.##G G G G R+p.{#} T !.G A !.e+A f+; e b c A A J K b b S+V q._+d#`.G#F#",
"a#] H#I#I#k+J#K#L#M#N#O#O#* / ( P#Q#% % R#S#^ ( n@[.T#[+o@k U#V#V#V#V V V V e = W#/ X#X#X#X#f#Y#Y#Y#= Z#= { e / V V { / `# $.$%.",
"] +$P@P@P@@$J##$% % * = * ^ * 1@% % % $$$$L#<+k g %$: : <+g L#M#M#L#d V V e e e b ^ $$% % % m#&$U.G.( * ( / * d d * / d 4 *$=$.$"};
